<?xml version="1.0" standalone="no"?>
<!DOCTYPE svg PUBLIC "-//W3C//DTD SVG 20010904//EN"
 "http://www.w3.org/TR/2001/REC-SVG-20010904/DTD/svg10.dtd">
<svg version="1.0" xmlns="http://www.w3.org/2000/svg"
 width="1024.000000pt" height="1024.000000pt" viewBox="0 0 1024.000000 1024.000000"
 preserveAspectRatio="xMidYMid meet">
<metadata>
Created by potrace 1.11, written by Peter Selinger 2001-2013
</metadata>
<g transform="translate(0.000000,1024.000000) scale(0.100000,-0.100000)"
fill="#000000" stroke="none">
<path d="M4945 9110 c-1054 -65 -2062 -487 -2710 -1135 -431 -431 -684 -918
-777 -1500 -20 -123 -23 -176 -23 -435 1 -307 12 -446 56 -680 170 -902 677
-1591 1454 -1975 724 -357 1616 -420 2397 -169 909 293 1481 919 1567 1716 24
213 7 532 -39 759 -158 777 -656 1287 -1410 1444 -155 32 -454 45 -620 26
-611 -70 -1111 -398 -1291 -846 -63 -157 -72 -213 -73 -415 -1 -192 4 -228 51
-395 77 -275 284 -516 516 -601 241 -87 509 -25 680 156 170 180 206 427 97
667 l-29 63 75 44 c41 24 113 56 159 71 72 24 96 27 172 23 73 -3 97 -9 141
-33 143 -78 237 -265 271 -540 40 -330 -22 -529 -226 -726 -164 -159 -403
-275 -692 -336 -115 -24 -146 -27 -351 -27 -253 -1 -350 13 -548 79 -522 174
-878 588 -1005 1166 -43 193 -52 282 -52 519 0 250 9 312 70 496 82 248 217
455 432 665 344 337 832 572 1383 668 224 39 304 45 565 46 291 0 376 -10 609
-69 672 -173 1253 -659 1595 -1336 217 -427 322 -875 322 -1370 0 -397 -71
-704 -243 -1053 -127 -255 -274 -461 -488 -681 -606 -623 -1494 -1006 -2502
-1078 l-168 -12 0 -528 0 -528 53 0 c28 0 115 5 192 10 791 58 1534 251 2200
574 774 375 1382 901 1769 1530 216 350 357 716 435 1126 68 361 70 861 5
1270 -124 784 -474 1536 -980 2110 -329 374 -684 649 -1114 864 -592 295
-1222 418 -1925 376z"/>
<path d="M1685 3253 c-46 -24 -66 -45 -86 -88 -31 -67 -19 -155 29 -208 44
-49 143 -71 205 -48 14 5 40 23 59 40 l34 30 390 -193 c214 -106 435 -214 492
-241 90 -42 106 -54 132 -95 17 -26 30 -50 30 -53 0 -4 -71 -7 -158 -7 l-159
0 -108 -81 -108 -82 -206 -28 c-113 -16 -375 -51 -581 -79 -206 -28 -387 -53
-402 -56 l-28 -6 0 -302 0 -302 578 -78 c317 -43 593 -81 613 -86 21 -4 80
-40 144 -89 l108 -81 523 0 522 0 86 95 86 95 0 458 0 457 -82 82 -83 82 -70
3 c-61 3 -70 6 -73 23 -1 11 -14 45 -28 76 -23 49 -33 59 -82 83 -47 23 -1267
482 -1453 547 -44 16 -62 29 -87 64 -17 24 -49 53 -71 65 -48 24 -123 26 -166
3z"/>
</g>
</svg>
